Coordinates
version=1
nRows=14
nColumns=46
inDegrees=yes

Units are S.I. units (second, meters, Newtons, ...)
Angles are in degrees.

endheader
time	pelvis_tilt	pelvis_list	pelvis_rotation	pelvis_tx	pelvis_ty	pelvis_tz	bb_angle	bb_tx	bb_ty	bb_tz	hip_flexion_r	hip_adduction_r	hip_rotation_r	knee_angle_r	knee_angle_r_beta	ankle_angle_r	subtalar_angle_r	mtp_angle_r	crank_angle_r	hip_flexion_l	hip_adduction_l	hip_rotation_l	knee_angle_l	knee_angle_l_beta	ankle_angle_l	subtalar_angle_l	mtp_angle_l	crank_angle_l	lumbar_extension	lumbar_bending	lumbar_rotation	arm_flex_r	arm_add_r	arm_rot_r	elbow_flex_r	pro_sup_r	wrist_flex_r	wrist_dev_r	arm_flex_l	arm_add_l	arm_rot_l	elbow_flex_l	pro_sup_l	wrist_flex_l	wrist_dev_l
      7.50500000	    -15.83257693	      2.01198124	     -4.09666657	      0.19713086	      1.05573287	     -0.30999660	      0.00000000	      0.50000000	      0.00000000	      0.25000000	     66.05278589	     -2.92506617	      3.38270174	     57.44016955	      1.00252008	      0.02150185	     -7.99668953	      0.00000000	      0.00000000	     67.19519689	     -8.77063849	      2.01274749	     98.57026742	      1.72037571	    -12.68111517	     -3.19563642	      0.00000000	      0.00000000	    -68.14266129	     -2.27061180	     -0.41443138	     89.63632102	    -11.78541656	     25.88577027	     64.87771110	     27.66771866	      0.00000000	      0.00000000	     87.68485795	    -19.16785186	     26.61270761	     67.25530682	     39.17555956	      0.00000000	      0.00000000
      7.51000000	    -15.54716600	      2.50571539	     -3.86380806	      0.19802017	      1.05428956	     -0.30950243	      0.00000000	      0.50000000	      0.00000000	      0.25000000	     64.65156103	     -3.50105229	      3.63196170	     55.87192354	      0.97514903	     -1.13401464	     -7.35651640	      0.00000000	      0.00000000	     68.34336407	     -8.46501487	      1.90050276	    100.76629334	      1.75870359	    -12.16679993	     -3.35576422	      0.00000000	      0.00000000	    -68.21841157	     -2.51760724	     -0.89023384	     89.61872037	    -12.18731441	     25.97278628	     64.84355646	     27.68203446	      0.00000000	      0.00000000	     87.71912332	    -19.10668683	     26.81019221	     67.22959110	     39.20038653	      0.00000000	      0.00000000
      7.51500000	    -15.04098336	      2.46226406	     -3.60999406	      0.19902286	      1.05306435	     -0.30894544	      0.00000000	      0.50000000	      0.00000000	      0.25000000	     62.87634297	     -3.81865068	      3.38493492	     54.33800035	      0.94837702	     -2.35644189	     -6.98916674	      0.00000000	      0.00000000	     69.42328567	     -8.48508518	      2.38960226	    103.06970694	      1.79890575	    -11.40552931	     -2.81276607	      0.00000000	      0.00000000	    -68.45470377	     -2.53549508	     -0.58216538	     89.61558687	    -13.37540056	     27.04811998	     64.64146602	     27.76191207	      0.00000000	      0.00000000	     87.86904318	    -18.80131010	     27.82467879	     66.96336524	     39.29384106	      0.00000000	      0.00000000
      7.52000000	    -14.65172904	      2.79656890	     -3.29529495	      0.19982358	      1.05184669	     -0.30865354	      0.00000000	      0.50000000	      0.00000000	      0.25000000	     61.31235598	     -4.42620229	      3.44291844	     52.88501681	      0.92301767	     -3.43146849	     -6.36617380	      0.00000000	      0.00000000	     70.54695370	     -8.16666304	      2.51427709	    105.14423291	      1.83511305	    -10.79958467	     -2.67444013	      0.00000000	      0.00000000	    -68.53725777	     -2.71486820	     -0.65087778	     89.60427463	    -14.57749207	     28.10798457	     64.62024479	     27.91867122	      0.00000000	      0.00000000	     88.08649538	    -18.20712744	     28.65539835	     66.10572589	     39.29139594	      0.00000000	      0.00000000
      7.52500000	    -14.18549575	      3.13024568	     -2.94005355	      0.20062391	      1.05102318	     -0.30837851	      0.00000000	      0.50000000	      0.00000000	      0.25000000	     59.63696700	     -5.12499978	      3.37849396	     51.43419781	      0.89769610	     -4.58767825	     -5.60013185	      0.00000000	      0.00000000	     71.57800278	     -7.80824979	      2.57446321	    107.07910994	      1.86888303	    -10.24719829	     -2.75281937	      0.00000000	      0.00000000	    -68.73613261	     -2.76384528	     -0.99102203	     89.58452459	    -14.84794751	     28.25932103	     64.41797444	     27.92541120	      0.00000000	      0.00000000	     88.14356815	    -17.94767398	     28.74821411	     65.99001365	     39.29360284	      0.00000000	      0.00000000
      7.53000000	    -13.71154602	      3.36080480	     -2.58335758	      0.20131764	      1.05050313	     -0.30793142	      0.00000000	      0.50000000	      0.00000000	      0.25000000	     57.89259204	     -5.73947027	      3.19421896	     49.96831766	      0.87211166	     -5.51378077	     -4.85308822	      0.00000000	      0.00000000	     72.59834035	     -7.47485715	      2.80120580	    108.87503968	      1.90022792	     -9.67386463	     -2.61199511	      0.00000000	      0.00000000	    -68.94575491	     -2.88891268	     -1.25035106	     89.58174776	    -15.29453828	     28.65813627	     63.87574184	     27.90315324	      0.00000000	      0.00000000	     88.24390531	    -17.43653295	     28.93258315	     65.57023063	     39.25548716	      0.00000000	      0.00000000
      7.53500000	    -13.41113565	      3.73686285	     -2.26602624	      0.20171278	      1.04999772	     -0.30740392	      0.00000000	      0.50000000	      0.00000000	      0.25000000	     56.38132370	     -6.38444380	      3.15803031	     48.52469080	      0.84691562	     -6.61554453	     -4.09868123	      0.00000000	      0.00000000	     73.77903651	     -7.13133000	      2.80007644	    110.50575152	      1.92868921	     -9.16798096	     -2.72855138	      0.00000000	      0.00000000	    -69.02555467	     -3.09370001	     -1.72156259	     89.55716395	    -15.54915788	     28.73170035	     63.58455450	     27.89326629	      0.00000000	      0.00000000	     88.37690748	    -17.16544209	     28.94593919	     65.39867665	     39.23571296	      0.00000000	      0.00000000
      7.54000000	    -12.85336580	      3.88820015	     -1.84905842	      0.20217614	      1.05013380	     -0.30710964	      0.00000000	      0.50000000	      0.00000000	      0.25000000	     54.48255936	     -7.04732731	      2.70231155	     47.05680503	      0.82129618	     -7.63152297	     -3.36239493	      0.00000000	      0.00000000	     74.71345894	     -6.71762040	      3.05813915	    112.04499376	      1.95555405	     -8.63384881	     -2.70507058	      0.00000000	      0.00000000	    -69.25726224	     -3.11247145	     -1.95212190	     89.56060950	    -15.85104352	     29.29489049	     62.42800337	     27.78532056	      0.00000000	      0.00000000	     88.46979101	    -16.42793114	     29.12658826	     64.47715117	     39.10375912	      0.00000000	      0.00000000
      7.54500000	    -12.78002513	      4.25536632	     -1.62246600	      0.20251741	      1.04975012	     -0.30642818	      0.00000000	      0.50000000	      0.00000000	      0.25000000	     53.23270801	     -7.60610084	      2.61693427	     45.71950446	      0.79795589	     -8.74279179	     -2.54865549	      0.00000000	      0.00000000	     76.11262281	     -6.47936015	      2.98870426	    113.42579039	      1.97965350	     -8.16338210	     -2.89522571	      0.00000000	      0.00000000	    -69.13357265	     -3.44877547	     -2.50385333	     89.51648898	    -15.92890202	     29.36240865	     62.18601717	     27.78227463	      0.00000000	      0.00000000	     88.50887563	    -16.10877692	     29.17012981	     64.32134893	     39.08629369	      0.00000000	      0.00000000
      7.55000000	    -12.39277647	      4.36985415	     -1.27061902	      0.20272239	      1.05026381	     -0.30610213	      0.00000000	      0.50000000	      0.00000000	      0.25000000	     51.50255421	     -8.15288068	      2.13396426	     44.23869172	      0.77211083	    -10.04020543	     -1.67768428	      0.00000000	      0.00000000	     77.19920486	     -6.11538465	      3.24747432	    114.67250423	      2.00141276	     -7.63853367	     -3.09203189	      0.00000000	      0.00000000	    -69.19780698	     -3.51099564	     -2.70907263	     89.53052496	    -16.01582753	     29.99820601	     60.53073103	     27.59352905	      0.00000000	      0.00000000	     88.60367897	    -15.35489465	     29.25540443	     63.14232061	     38.89033359	      0.00000000	      0.00000000
      7.55500000	    -12.40366756	      4.79830573	     -1.06329580	      0.20283782	      1.05060334	     -0.30560400	      0.00000000	      0.50000000	      0.00000000	      0.25000000	     50.34987911	     -8.79286094	      1.90377893	     42.84665925	      0.74781528	    -11.36130758	     -0.91024179	      0.00000000	      0.00000000	     78.60076533	     -5.81603575	      3.02742447	    115.69772896	      2.01930631	     -7.27858247	     -3.14293616	      0.00000000	      0.00000000	    -69.05461233	     -3.88778977	     -3.30566855	     89.49406297	    -16.07622764	     30.07616456	     60.20835398	     27.57253554	      0.00000000	      0.00000000	     88.66770057	    -14.99819647	     29.28085127	     62.93079433	     38.85664845	      0.00000000	      0.00000000
      7.56000000	    -12.24280960	      5.05762627	     -0.69320879	      0.20280985	      1.05171567	     -0.30517042	      0.00000000	      0.50000000	      0.00000000	      0.25000000	     48.96131912	     -9.45088051	      1.40524708	     41.51505671	      0.72457443	    -12.79888373	     -0.13094321	      0.00000000	      0.00000000	     79.78330343	     -5.42075953	      2.99984215	    116.52438885	      2.03373424	     -6.85223636	     -3.39157499	      0.00000000	      0.00000000	    -68.93444977	     -4.08559214	     -3.74583175	     89.51099008	    -15.94728995	     30.77752858	     58.01063464	     27.38367635	      0.00000000	      0.00000000	     88.76606718	    -13.97756545	     28.95728985	     61.12980890	     38.48477591	      0.00000000	      0.00000000
      7.56500000	    -12.35389583	      5.39932587	     -0.42523643	      0.20258638	      1.05264688	     -0.30462110	      0.00000000	      0.50000000	      0.00000000	      0.25000000	     47.91437746	    -10.00036957	      1.24635244	     40.23085809	      0.70216093	    -14.12879742	      0.54599163	      0.00000000	      0.00000000	     81.22574940	     -4.99787059	      2.94979853	    117.23192383	      2.04608306	     -6.21319294	     -3.71309978	      0.00000000	      0.00000000	    -68.78886275	     -4.41327195	     -4.27023447	     89.47337102	    -16.00421141	     30.80452434	     57.80354827	     27.36692518	      0.00000000	      0.00000000	     88.83501387	    -13.65742968	     28.98608646	     61.04556309	     38.46639485	      0.00000000	      0.00000000
      7.57000000	    -12.26762465	      5.42051172	     -0.00300439	      0.20217089	      1.05427770	     -0.30422786	      0.00000000	      0.50000000	      0.00000000	      0.25000000	     46.54361905	    -10.40144762	      0.61162844	     38.88154882	      0.67861105	    -15.85114784	      0.83027555	      0.00000000	      0.00000000	     82.46575281	     -4.45823064	      3.21875730	    117.74494559	      2.05503698	     -6.11501433	     -3.79433326	      0.00000000	      0.00000000	    -68.77822708	     -4.44005825	     -4.52602799	     89.48493909	    -15.93024774	     31.18689909	     56.51820074	     27.22626327	      0.00000000	      0.00000000	     88.90399521	    -13.00094439	     28.78590927	     60.39817059	     38.30689254	      0.00000000	      0.00000000
